HIERARCHY
ROOT root
{
	OFFSET 0.000000 0.000000 0.000000
	CHANNELS 6 Xposition Yposition Zposition Zrotation Yrotation Xrotation
	JOINT lhip
	{
		OFFSET 0.058581 -0.082280 -0.017664
		CHANNELS 3 Zrotation Yrotation Xrotation
		JOINT lknee
		{
			OFFSET 0.043451 -0.386469 0.008037
			CHANNELS 3 Zrotation Yrotation Xrotation
			JOINT lankle
			{
				OFFSET -0.014790 -0.426874 -0.037428
				CHANNELS 3 Zrotation Yrotation Xrotation
				JOINT ltoe
				{
					OFFSET 0.041054 -0.060286 0.122042
					CHANNELS 3 Zrotation Yrotation Xrotation
					End Site
					{
						OFFSET 0.000000 0.000000 0.000000
					}
				}
			}
		}
	}
	JOINT rhip
	{
		OFFSET -0.060310 -0.090513 -0.013543
		CHANNELS 3 Zrotation Yrotation Xrotation
		JOINT rknee
		{
			OFFSET -0.043257 -0.383688 -0.004843
			CHANNELS 3 Zrotation Yrotation Xrotation
			JOINT rankle
			{
				OFFSET 0.019056 -0.420046 -0.034562
				CHANNELS 3 Zrotation Yrotation Xrotation
				JOINT rtoe
				{
					OFFSET -0.034840 -0.062106 0.130323
					CHANNELS 3 Zrotation Yrotation Xrotation
					End Site
					{
						OFFSET 0.000000 0.000000 0.000000
					}
				}
			}
		}
	}
	JOINT lowerback
	{
		OFFSET 0.004439 0.124404 -0.038385
		CHANNELS 3 Zrotation Yrotation Xrotation
		JOINT upperback
		{
			OFFSET 0.004488 0.137956 0.026820
			CHANNELS 3 Zrotation Yrotation Xrotation
			JOINT chest
			{
				OFFSET -0.002265 0.056032 0.002855
				CHANNELS 3 Zrotation Yrotation Xrotation
				JOINT lowerneck
				{
					OFFSET -0.013390 0.211636 -0.033468
					CHANNELS 3 Zrotation Yrotation Xrotation
					JOINT upperneck
					{
						OFFSET 0.010113 0.088937 0.050410
						CHANNELS 3 Zrotation Yrotation Xrotation
						End Site
						{
							OFFSET 0.000000 0.000000 0.000000
						}
					}
				}
				JOINT lclavicle
				{
					OFFSET 0.071702 0.114000 -0.018898
					CHANNELS 3 Zrotation Yrotation Xrotation
					JOINT lshoulder
					{
						OFFSET 0.122921 0.045205 -0.019046
						CHANNELS 3 Zrotation Yrotation Xrotation
						JOINT lelbow
						{
							OFFSET 0.255332 -0.015649 -0.022946
							CHANNELS 3 Zrotation Yrotation Xrotation
							JOINT lwrist
							{
								OFFSET 0.265709 0.012698 -0.007375
								CHANNELS 3 Zrotation Yrotation Xrotation
								End Site
								{
									OFFSET 0.000000 0.000000 0.000000
								}
							}
						}
					}
				}
				JOINT rclavicle
				{
					OFFSET -0.082954 0.112472 -0.023707
					CHANNELS 3 Zrotation Yrotation Xrotation
					JOINT rshoulder
					{
						OFFSET -0.113228 0.046853 -0.008472
						CHANNELS 3 Zrotation Yrotation Xrotation
						JOINT relbow
						{
							OFFSET -0.260127 -0.014369 -0.031269
							CHANNELS 3 Zrotation Yrotation Xrotation
							JOINT rwrist
							{
								OFFSET -0.269108 0.006794 -0.006027
								CHANNELS 3 Zrotation Yrotation Xrotation
								End Site
								{
									OFFSET 0.000000 0.000000 0.000000
								}
							}
						}
					}
				}
			}
		}
	}
}
MOTION
Frames: 10
Frame Time: 0.033333
-0.225475 0.312146 0.859761 107.340902 -7.313775 112.953461 7.319849 -6.332767 -70.562244 -16.997494 8.383829 48.541241 2.053407 1.908034 -8.829050 0.000000 -0.000000 0.000000 -16.939602 -22.531884 -61.233613 0.097658 -18.216473 63.868282 4.246014 -8.122344 -25.189663 0.000000 -0.000000 0.000000 16.333721 -5.262170 68.066385 -1.062522 9.638511 1.651883 3.903356 6.629630 8.379196 -6.811659 -18.511750 -4.187635 4.162965 -7.939448 -8.671400 -4.962121 -19.348306 -8.508838 -56.029776 -7.545453 32.318730 -84.214480 -77.723724 126.897473 63.655348 -10.310328 -10.483304 -11.356785 34.278160 -8.225288 -10.567751 12.722323 -32.422681 -2.409564 12.785278 -33.670151 -39.598387 11.898666 -12.843667 
-0.222326 0.315210 0.859974 107.540648 -7.215764 113.908696 7.728760 -6.667726 -71.308179 -17.023829 8.478620 48.344397 2.035623 2.177063 -8.868736 0.000000 -0.000000 0.000000 -16.996959 -22.451634 -61.634588 0.035308 -18.410208 63.540652 4.306542 -8.083740 -25.594641 0.000000 -0.000000 0.000000 16.371691 -5.317582 67.612700 -1.039584 9.687799 1.359430 3.898729 6.635873 8.478920 -6.703592 -18.607546 -3.959124 4.056410 -7.970917 -9.076402 -4.925906 -19.141702 -8.373085 -56.121447 -7.647196 32.447409 -85.764828 -77.699056 128.092745 63.853654 -9.781684 -10.457401 -11.116162 34.248629 -7.854387 -10.962625 13.007124 -32.709097 -2.209580 12.434092 -33.935320 -41.388026 12.054215 -12.896494 
-0.217871 0.317167 0.861770 107.574683 -7.051667 114.076880 7.513276 -6.567655 -70.979193 -16.965885 8.162573 48.269852 2.004112 2.069023 -9.036843 0.000000 -0.000000 0.000000 -16.670649 -22.263134 -61.346149 -0.252599 -18.179343 63.207188 4.044137 -8.018924 -25.788208 0.000000 -0.000000 0.000000 16.230765 -5.258105 68.218545 -1.066759 9.742013 1.133349 4.016372 6.651142 8.461909 -6.637835 -18.659146 -4.272183 4.265180 -7.861850 -9.098364 -4.865639 -19.132302 -8.567915 -56.020073 -7.577152 32.528022 -86.005729 -77.717398 128.615190 64.126455 -9.507116 -11.073917 -11.463868 34.253648 -8.323899 -10.719569 13.301031 -32.599403 -2.371635 12.146774 -34.548290 -41.577745 11.739115 -13.442275 
-0.214992 0.319108 0.863318 107.845105 -7.160899 114.544313 7.493855 -6.957276 -71.141559 -16.955013 7.969944 47.953714 1.899280 2.182184 -9.009873 0.000000 -0.000000 0.000000 -16.778257 -22.366647 -61.251097 -0.316462 -18.278055 62.838680 4.510070 -8.198477 -25.718342 0.000000 -0.000000 0.000000 16.202356 -5.382459 68.060013 -1.037312 9.588813 0.948064 3.981131 6.571450 8.635988 -6.209228 -18.699391 -4.790172 4.158152 -7.750866 -9.121623 -4.610862 -18.862229 -8.596388 -55.841589 -7.703882 32.626118 -86.741140 -77.527913 130.013489 64.871432 -9.945495 -13.915847 -11.571431 34.136458 -8.409641 -10.670325 13.750974 -32.599107 -2.328451 11.833468 -34.782378 -41.932550 11.417796 -13.894899 
-0.212549 0.320940 0.865244 108.001073 -7.245613 114.984229 7.362337 -7.188749 -71.192596 -16.948097 7.692394 47.531569 1.869142 2.296103 -8.898114 0.000000 -0.000000 0.000000 -16.825336 -22.331567 -61.175970 -0.331718 -18.218998 62.248451 4.522424 -8.294978 -25.781681 0.000000 -0.000000 0.000000 16.356167 -5.475811 67.751519 -1.073427 9.476766 0.910319 3.891335 6.433132 8.735067 -6.077699 -18.704218 -4.926498 4.295443 -7.723575 -9.264301 -4.635295 -19.022698 -8.382746 -55.606924 -7.914359 32.584985 -86.679307 -77.595981 129.851252 64.707338 -9.838742 -13.683019 -11.517340 34.137394 -8.554977 -10.636443 13.900364 -32.660251 -2.101641 11.719088 -34.609468 -41.514606 11.254218 -14.510057 
-0.210671 0.322019 0.866785 108.153844 -7.209974 115.486951 7.533727 -7.352676 -71.409219 -16.898929 7.668901 47.204546 1.834705 2.368110 -8.871396 0.000000 -0.000000 0.000000 -16.768783 -22.290401 -61.260022 -0.332800 -18.450624 61.925527 4.888605 -8.505407 -25.577440 0.000000 -0.000000 0.000000 16.445584 -5.261601 67.161288 -0.839219 9.576923 0.894503 4.059231 6.509174 8.755376 -6.215261 -18.489432 -4.504879 4.403905 -8.168424 -9.663817 -4.896148 -19.435056 -8.111249 -55.569301 -8.193695 32.765429 -84.361983 -77.573476 127.331371 64.903728 -10.300729 -13.552389 -11.149994 34.139252 -8.005384 -10.896126 13.635980 -32.702433 -1.842276 11.647827 -34.515000 -41.761842 11.383052 -14.117321 
-0.208493 0.322872 0.869192 108.291186 -7.191623 115.640350 7.408635 -7.482684 -71.124957 -16.660570 7.469060 46.870295 1.627918 2.266793 -8.758735 0.000000 -0.000000 0.000000 -16.640686 -22.221513 -60.994694 -0.508572 -18.430783 61.461681 4.678265 -8.454906 -25.489815 0.000000 -0.000000 0.000000 16.543742 -5.315069 67.179898 -0.875576 9.535150 0.862727 4.097077 6.429740 8.626798 -6.190875 -18.802028 -4.592488 4.338952 -7.941518 -10.118644 -5.174075 -19.598766 -7.882406 -55.378775 -8.227255 32.639043 -85.240629 -77.752722 127.972396 63.495788 -10.171105 -13.448490 -11.096144 34.329627 -7.841824 -10.966933 13.539511 -32.804232 -1.803150 11.418984 -34.664611 -40.639980 11.608830 -13.647282 
-0.206889 0.323123 0.871595 108.290660 -7.228841 115.740219 7.248632 -7.603837 -70.802402 -16.540883 7.164228 46.453132 1.739493 2.289253 -8.678426 0.000000 -0.000000 0.000000 -16.562813 -22.098604 -60.723706 -0.458511 -18.311470 60.922026 4.995250 -8.552082 -25.298125 0.000000 -0.000000 0.000000 16.496117 -5.225478 67.268731 -0.975643 9.526567 0.778370 4.065877 6.470029 8.545657 -6.010904 -19.027388 -5.096515 4.655926 -7.726183 -9.928947 -5.012886 -19.609233 -8.275167 -55.771353 -8.311974 32.839022 -83.720061 -77.777300 126.271731 61.834518 -9.251696 -11.863162 -11.021979 34.363648 -8.229083 -10.531376 13.511409 -32.471372 -2.139861 11.409772 -34.814272 -37.796865 11.127257 -12.683947 
-0.205432 0.322807 0.873816 108.355389 -7.147564 115.813069 7.214004 -7.699098 -70.496378 -16.389543 6.819177 46.105616 1.810779 2.302116 -8.672355 0.000000 -0.000000 0.000000 -16.367795 -21.987512 -60.470958 -0.467714 -18.340313 60.459342 4.975287 -8.553853 -25.173193 0.000000 -0.000000 0.000000 16.531425 -5.117445 67.244872 -0.969275 9.590077 0.669937 4.121703 6.488648 8.400693 -6.100766 -19.122778 -5.259588 4.671623 -7.772116 -9.869513 -5.086247 -19.810447 -8.410006 -56.018100 -8.281522 32.945475 -81.625496 -77.845355 124.070118 61.288779 -9.439279 -11.179596 -11.067145 34.442524 -8.490120 -10.089566 13.524557 -32.325642 -2.326402 11.180704 -34.998223 -36.354607 10.962798 -11.780429 
-0.203747 0.322069 0.877276 108.036412 -7.120541 115.667668 7.035548 -7.633609 -69.739172 -16.204222 6.504119 45.590428 1.839547 2.332065 -8.631920 0.000000 -0.000000 0.000000 -16.071658 -21.700637 -60.079986 -0.289895 -17.991745 59.771930 5.016230 -8.819284 -24.725529 0.000000 -0.000000 0.000000 16.575397 -4.794186 67.233416 -1.008812 9.690485 1.138031 4.189950 6.470382 8.112190 -6.470891 -19.531047 -5.028100 5.072346 -7.704008 -10.357246 -5.173345 -20.592348 -8.324615 -56.018105 -8.315251 32.932389 -79.949220 -78.149460 122.461894 61.339689 -9.733325 -11.352331 -11.751734 34.627011 -8.789635 -8.946433 12.980255 -31.667824 -3.001729 11.365206 -35.386909 -33.976263 9.830949 -11.657682 
